<?xml version="1.0" encoding="UTF-8"?>
<svg xmlns="http://www.w3.org/2000/svg" viewBox="0 0 116.65 142.89">
  <g id="b" data-name="Logo">
    <g id="e" data-name="Kreise">
      <g>
        <polygon points="54.59 21.92 54.35 44.31 58.56 43.84 58.23 22.69 54.59 21.92" fill="#0b475b" stroke="#09202e" stroke-miterlimit="10" stroke-width=".5"/>
        <path d="M21.73,28.53c4.17-2.1,26.66-13.45,26.66-13.45l1.35,2.71-26.57,13.82-1.44-3.09Z" fill="#0b475b" stroke="#09202e" stroke-miterlimit="10" stroke-width=".5"/>
        <path d="M19.11,42.61c2.13,4.74,3.1,7.09,3.84,9.04s.26.02,4.14,10.61c1.51,4.13,3.26,8.1,4.96,12.26,1.06,2.6,2.6,5.11,5.46,3.37,1.17-.71,2.19-3.56,2.36-3.96.49-1.24,1.21-3.04,4.04-8.9,2.39-4.95,2.73-5.24,3.85-8.18.04-.09.45-1.46.41-3.99-.04-2.72,1.57-5.55,2.15-6.33,1.91-2.58,4.94-4.13,8.93-3.59,6.44.88,7.55,6.33,9.24,11.99,1.02,3.33,2.38,5.41,3.24,7.18,2.04,4.16,3.43,6.96,4.88,10.65.7,1.77,1.14,3.69,3.06,5.02.4.28,1.46.97,2.66.76,2.2-.37,2.12-1.6,2.78-3.35,1.17-3.11,2.46-7.2,3.65-10.31,1.68-4.38,3.49-8.81,4.15-10.49,2.03-5.2,1.42-3.7,2.69-7,.6-1.55,1.12-2.96,1.68-4.5.6-1.67.94-2.47.94-2.47l6.32,2.87s-.24.7-.66,1.95c-1,2.99-1.98,5.23-2.87,7.88-3.43,10.2-7.99,24.76-9.99,27.1-.11.13-.75,1.32-.94,2.13-.54,2.23-.32,2.81-.3,3.49.04,1.7.08,2.43.02,3.51-.16,3.03-3.15,6.06-6.49,6.55-.8.14-3.48.5-5.91-1.3-1.82-1.35-3.06-2.57-3.24-4.46-.22-1.42.13-2.38.01-3.76.02-1.68-.42-3.17-.96-4.82-.14-.45-.52-1.2-1.61-3.5-1.84-3.88-2.65-5.73-3.95-8.46-1.15-2.55-2.74-5.52-3.23-6.35-.96-1.62-1.21-2.12-2.48-2.5-2.5-.76-4.65-.88-6.97-.12-2.17.82-2.6,1.74-3.94,4.49-.19.38-1.32,2.46-3.13,6.75-1.42,3.36-1.88,5.19-2.67,6.76-1.05,2.11-1.3,2.88-1.59,4.39-.34,1.76-.32,2.47-.53,4.51-.18,1.71-.5,2.89-1.19,4.56-2.3,5.52-9.6,6.11-13.31.64-.26-.38-2.51-3.55-1.44-6.57.44-1.67.11-3.86-.51-5.42-1.08-2.4-1.51-3.93-3.25-8.15-2.16-5.24-1.88-4.98-4.32-11.35-1.92-4.99-3.28-9.21-3.28-9.21-1.4-3.88-1.72-4.87-2.52-7.17-.46-1.34-.84-2.25-.84-2.25l5.49-2.5s.78,1.67,1.14,2.48Z" fill="#0b475b" stroke="#09202e" stroke-miterlimit="10" stroke-width=".75"/>
        <path d="M12.79,45.25c-8.44.58-15.08-10.25-10.58-17.61,4.66-8.12,15.94-7.74,20.01.79,3.87,7.08-1.43,16.32-9.3,16.81h-.14Z" fill="#d78b2e" stroke="#d19233" stroke-miterlimit="10" stroke-width=".5"/>
        <path d="M59.1,23.71c-8.44.58-15.08-10.25-10.58-17.61,4.66-8.12,15.94-7.74,20.01.79,3.87,7.08-1.43,16.32-9.3,16.81h-.14Z" fill="#d78b2e" stroke="#d19233" stroke-miterlimit="10" stroke-width=".5"/>
        <path d="M105.66,45.25c-8.44.58-15.08-10.25-10.58-17.61,4.66-8.12,15.94-7.74,20.01.79,3.87,7.08-1.43,16.32-9.3,16.81h-.14Z" fill="#d78b2e" stroke="#d19233" stroke-miterlimit="10" stroke-width=".5"/>
      </g>
    </g>
  </g>
  <g id="f" data-name="Text">
    <g id="g" data-name="Brand">
      <text transform="translate(0 130.28) scale(1.08 1)" fill="#09465a" font-family="CuprumRoman-Bold, Cuprum" font-size="32.66" font-variation-settings="&apos;wght&apos; 700" font-weight="700"><tspan x="0" y="0">Wi</tspan><tspan x="32.99" y="0" letter-spacing="-.02em">k</tspan><tspan x="47.36" y="0" letter-spacing="0em">onia</tspan></text>
    </g>
    <g id="h" data-name="Claim">
      <text transform="translate(2.5 140.58)" fill="#09202d" font-family="Cuprum-Italic, Cuprum" font-size="11" font-style="italic" font-variation-settings="&apos;wght&apos; 400"><tspan x="0" y="0">Empowe</tspan><tspan x="34.15" y="0" letter-spacing="0em">r</tspan><tspan x="37.73" y="0">ed by Function</tspan></text>
    </g>
  </g>
</svg>