<?xml version="1.0" encoding="UTF-8"?>
<svg xmlns="http://www.w3.org/2000/svg" viewBox="0 0 136.39 136">
  <g id="a" data-name="Sperrfläche">
    <rect x=".5" y=".5" width="135" height="135" fill="none"/>
  </g>
  <g id="b" data-name="Schrift">
    <text transform="translate(1.54 117.06) scale(1.08 1)" fill="#06465a" font-family="CuprumRoman-Bold, Cuprum" font-size="39.44" font-variation-settings="&apos;wght&apos; 700" font-weight="700"><tspan x="0" y="0">Wi</tspan><tspan x="39.83" y="0" letter-spacing="-.02em">k</tspan><tspan x="57.18" y="0" letter-spacing="0em">onia</tspan></text>
    <text transform="translate(.5 129.26)" fill="#09202d" font-family="Cuprum-Italic, Cuprum" font-size="14.8" font-style="italic" font-variation-settings="&apos;wght&apos; 400"><tspan x="0" y="0">Empowe</tspan><tspan x="45.95" y="0" letter-spacing="0em">r</tspan><tspan x="50.76" y="0">ed by Function</tspan></text>
  </g>
  <g id="c" data-name="Logo">
    <g>
      <polygon points="64.97 20.3 64.78 38.21 68.15 37.84 67.88 20.92 64.97 20.3" fill="#09465a" stroke="#09202d" stroke-miterlimit="10" stroke-width=".5"/>
      <path d="M38.68,25.59c3.34-1.68,21.33-10.76,21.33-10.76l1.08,2.17-21.25,11.06-1.15-2.47Z" fill="#09465a" stroke="#09202d" stroke-miterlimit="10" stroke-width=".5"/>
      <path d="M36.59,36.85c1.7,3.79,2.48,5.67,3.07,7.24s.2.01,3.31,8.49c1.21,3.3,2.61,6.48,3.97,9.81.85,2.08,2.08,4.08,4.36,2.7.93-.56,1.76-2.85,1.89-3.17.39-.99.97-2.43,3.24-7.12,1.91-3.96,2.18-4.19,3.08-6.54.03-.07.36-1.16.33-3.19-.03-2.17,1.26-4.44,1.72-5.06,1.53-2.06,3.96-3.31,7.14-2.87,5.15.7,6.04,5.06,7.39,9.59.82,2.66,1.9,4.33,2.59,5.75,1.63,3.33,2.74,5.57,3.91,8.52.56,1.42.92,2.95,2.45,4.02.32.22,1.17.77,2.13.61,1.76-.29,1.69-1.28,2.22-2.68.94-2.49,1.97-5.76,2.92-8.25,1.34-3.5,2.79-7.05,3.32-8.39,1.62-4.16,1.14-2.96,2.16-5.6.48-1.24.9-2.37,1.34-3.6.48-1.33.75-1.97.75-1.97l5.06,2.3s-.19.56-.52,1.56c-.8,2.39-1.59,4.19-2.3,6.31-2.74,8.16-6.39,19.81-7.99,21.68-.09.1-.6,1.06-.75,1.71-.43,1.78-.25,2.25-.24,2.79.03,1.36.06,1.95.02,2.81-.13,2.42-2.52,4.84-5.19,5.24-.64.12-2.78.4-4.73-1.04-1.46-1.08-2.44-2.06-2.59-3.57-.18-1.13.11-1.9.01-3.01.02-1.35-.33-2.54-.76-3.85-.11-.36-.42-.96-1.29-2.8-1.47-3.11-2.12-4.58-3.16-6.76-.92-2.04-2.19-4.42-2.58-5.08-.76-1.29-.96-1.7-1.98-2-2-.61-3.72-.7-5.58-.09-1.74.66-2.08,1.39-3.16,3.59-.15.3-1.05,1.97-2.5,5.4-1.14,2.69-1.51,4.15-2.13,5.41-.84,1.69-1.04,2.3-1.27,3.51-.27,1.41-.25,1.97-.42,3.61-.14,1.37-.4,2.31-.95,3.64-1.84,4.42-7.68,4.89-10.65.51-.21-.3-2-2.84-1.16-5.26.35-1.34.09-3.09-.41-4.34-.86-1.92-1.21-3.14-2.6-6.52-1.73-4.19-1.5-3.99-3.46-9.08-1.53-3.99-2.62-7.37-2.62-7.37-1.12-3.1-1.38-3.89-2.01-5.74-.37-1.07-.67-1.8-.67-1.8l4.39-2s.63,1.34.91,1.98Z" fill="#09465a" stroke="#09202d" stroke-miterlimit="10" stroke-width=".75"/>
      <path d="M31.53,38.97c-6.75.46-12.07-8.2-8.46-14.09,3.73-6.5,12.75-6.19,16.01.63,3.1,5.66-1.14,13.05-7.44,13.45h-.11Z" fill="#d68a2d" stroke="#d09032" stroke-miterlimit="10" stroke-width=".5"/>
      <path d="M68.58,21.74c-6.75.46-12.07-8.2-8.46-14.09,3.73-6.5,12.75-6.19,16.01.63,3.1,5.66-1.14,13.05-7.44,13.45h-.11Z" fill="#d68a2d" stroke="#d09032" stroke-miterlimit="10" stroke-width=".5"/>
      <path d="M105.83,38.97c-6.75.46-12.07-8.2-8.46-14.09,3.73-6.5,12.75-6.19,16.01.63,3.1,5.66-1.14,13.05-7.44,13.45h-.11Z" fill="#d68a2d" stroke="#d09032" stroke-miterlimit="10" stroke-width=".5"/>
    </g>
  </g>
</svg>