<?xml version="1.0" encoding="UTF-8"?>
<svg id="b" data-name="Logo" xmlns="http://www.w3.org/2000/svg" viewBox="0 0 160 160">
  <g id="c" data-name="Netzwerk-Linien">
    <polygon points="75.16 44.04 74.84 73.89 80.46 73.27 80.02 45.07 75.16 44.04" fill="#0b475b" stroke="#09202e" stroke-miterlimit="10" stroke-width=".5"/>
    <path d="M31.35,52.85c5.56-2.79,35.55-17.93,35.55-17.93l1.79,3.62-35.42,18.43-1.92-4.12Z" fill="#0b475b" stroke="#09202e" stroke-miterlimit="10" stroke-width=".5"/>
  </g>
  <g id="d" data-name="Buchstabe">
    <path d="M27.86,71.62c2.84,6.32,4.14,9.46,5.12,12.06s.34.02,5.52,14.15c2.02,5.5,4.35,10.79,6.62,16.35,1.41,3.46,3.46,6.81,7.27,4.5,1.55-.94,2.93-4.74,3.14-5.28.66-1.65,1.62-4.05,5.39-11.86,3.19-6.6,3.64-6.98,5.14-10.9.05-.12.6-1.94.55-5.32-.05-3.62,2.09-7.4,2.86-8.44,2.55-3.44,6.59-5.51,11.9-4.78,8.59,1.17,10.06,8.44,12.32,15.98,1.36,4.44,3.17,7.22,4.32,9.58,2.71,5.54,4.57,9.28,6.51,14.21.93,2.36,1.53,4.92,4.08,6.7.54.37,1.95,1.29,3.55,1.02,2.93-.49,2.82-2.13,3.71-4.47,1.56-4.15,3.29-9.6,4.87-13.75,2.24-5.83,4.66-11.74,5.53-13.98,2.71-6.94,1.9-4.94,3.59-9.33.8-2.07,1.49-3.95,2.24-6,.8-2.22,1.25-3.29,1.25-3.29l8.43,3.83s-.32.94-.87,2.6c-1.33,3.98-2.64,6.98-3.83,10.51-4.57,13.6-10.66,33.01-13.32,36.14-.15.17-.99,1.76-1.25,2.84-.72,2.97-.42,3.75-.4,4.65.05,2.26.11,3.25.03,4.69-.22,4.04-4.2,8.07-8.65,8.74-1.06.19-4.64.66-7.88-1.74-2.43-1.79-4.07-3.43-4.32-5.95-.29-1.89.18-3.17.02-5.02.03-2.24-.56-4.23-1.27-6.42-.19-.6-.7-1.6-2.15-4.67-2.45-5.18-3.53-7.63-5.26-11.27-1.53-3.4-3.65-7.36-4.3-8.47-1.27-2.16-1.61-2.83-3.3-3.33-3.33-1.02-6.2-1.17-9.3-.16-2.9,1.09-3.46,2.32-5.26,5.98-.25.51-1.76,3.29-4.17,9-1.89,4.48-2.51,6.92-3.55,9.02-1.39,2.81-1.73,3.84-2.12,5.85-.45,2.35-.42,3.29-.71,6.01-.24,2.28-.66,3.85-1.59,6.07-3.07,7.36-12.8,8.14-17.75.85-.34-.51-3.34-4.74-1.93-8.76.59-2.23.15-5.15-.68-7.23-1.43-3.19-2.01-5.23-4.33-10.86-2.88-6.98-2.5-6.65-5.76-15.13-2.55-6.65-4.37-12.28-4.37-12.28-1.86-5.17-2.29-6.49-3.36-9.56-.62-1.79-1.12-3-1.12-3l7.32-3.34s1.04,2.23,1.52,3.3Z" fill="#0b475b" stroke="#09202e" stroke-miterlimit="10" stroke-width=".75"/>
  </g>
  <g id="e" data-name="Kreise">
    <path d="M19.43,75.15c-11.26.77-20.11-13.67-14.1-23.48,6.21-10.83,21.25-10.32,26.69,1.05,5.16,9.43-1.9,21.76-12.4,22.41h-.18Z" fill="#d78b2e" stroke="#d19233" stroke-miterlimit="10" stroke-width=".5"/>
    <path d="M81.17,46.43c-11.26.77-20.11-13.67-14.1-23.48,6.21-10.83,21.25-10.32,26.69,1.05,5.16,9.43-1.9,21.76-12.4,22.41h-.18Z" fill="#d78b2e" stroke="#d19233" stroke-miterlimit="10" stroke-width=".5"/>
    <path d="M143.26,75.15c-11.26.77-20.11-13.67-14.1-23.48,6.21-10.83,21.25-10.32,26.69,1.05,5.16,9.43-1.9,21.76-12.4,22.41h-.18Z" fill="#d78b2e" stroke="#d19233" stroke-miterlimit="10" stroke-width=".5"/>
  </g>
</svg>