<?xml version="1.0" encoding="UTF-8"?>
<svg id="a" data-name="Ebene 1" xmlns="http://www.w3.org/2000/svg" viewBox="0 0 554.98 155.77">
  <text transform="translate(197.61 133.82) scale(1.08 1)" fill="#06465a" font-family="CuprumRoman-Bold, Cuprum" font-size="104.51" font-variation-settings="&apos;wght&apos; 700" font-weight="700"><tspan x="0" y="0">Wi</tspan><tspan x="105.56" y="0" letter-spacing="-.02em">k</tspan><tspan x="151.54" y="0">onia</tspan></text>
  <g>
    <polygon points="82.61 33.4 82.24 67.66 88.69 66.95 88.18 34.58 82.61 33.4" fill="#09465a" stroke="#09202d" stroke-miterlimit="10" stroke-width=".5"/>
    <path d="M32.33,43.52c6.38-3.21,40.79-20.58,40.79-20.58l2.06,4.15-40.65,21.15-2.21-4.73Z" fill="#09465a" stroke="#09202d" stroke-miterlimit="10" stroke-width=".5"/>
    <path d="M28.33,65.05c3.25,7.25,4.75,10.85,5.87,13.84s.39.03,6.33,16.23c2.32,6.31,5,12.39,7.59,18.77,1.62,3.98,3.97,7.81,8.35,5.16,1.78-1.08,3.36-5.44,3.61-6.06.75-1.89,1.86-4.65,6.19-13.61,3.66-7.57,4.17-8.01,5.9-12.51.05-.14.69-2.23.63-6.11-.06-4.16,2.4-8.5,3.28-9.69,2.93-3.95,7.57-6.32,13.66-5.49,9.86,1.35,11.55,9.68,14.14,18.34,1.56,5.1,3.63,8.28,4.96,10.99,3.11,6.36,5.24,10.65,7.47,16.3,1.07,2.71,1.75,5.64,4.68,7.68.62.43,2.24,1.48,4.07,1.17,3.36-.56,3.24-2.44,4.25-5.13,1.79-4.76,3.77-11.02,5.59-15.77,2.56-6.69,5.34-13.48,6.34-16.04,3.11-7.96,2.17-5.67,4.12-10.71.92-2.37,1.72-4.53,2.56-6.89.92-2.55,1.44-3.77,1.44-3.77l9.68,4.39s-.37,1.08-1,2.98c-1.53,4.57-3.03,8.01-4.39,12.06-5.24,15.6-12.23,37.88-15.29,41.47-.17.2-1.14,2.02-1.44,3.26-.82,3.41-.48,4.3-.46,5.33.06,2.6.12,3.72.03,5.38-.25,4.63-4.82,9.26-9.92,10.02-1.22.22-5.32.76-9.04-1.99-2.78-2.06-4.67-3.93-4.96-6.83-.34-2.17.2-3.64.02-5.76.03-2.57-.64-4.85-1.46-7.37-.21-.69-.8-1.83-2.46-5.36-2.81-5.94-4.05-8.76-6.04-12.94-1.76-3.9-4.19-8.45-4.94-9.72-1.46-2.47-1.85-3.25-3.79-3.82-3.82-1.17-7.11-1.34-10.67-.18-3.33,1.25-3.97,2.67-6.04,6.86-.29.58-2.02,3.77-4.79,10.33-2.17,5.14-2.88,7.94-4.08,10.35-1.6,3.23-1.99,4.4-2.43,6.72-.51,2.69-.49,3.78-.81,6.9-.27,2.61-.76,4.42-1.82,6.97-3.52,8.45-14.68,9.35-20.37.98-.39-.58-3.83-5.44-2.21-10.06.67-2.55.17-5.91-.78-8.3-1.65-3.67-2.31-6.01-4.97-12.47-3.31-8.01-2.87-7.63-6.61-17.36-2.93-7.63-5.02-14.1-5.02-14.1-2.14-5.93-2.63-7.45-3.85-10.97-.71-2.05-1.28-3.44-1.28-3.44l8.4-3.83s1.2,2.56,1.75,3.79Z" fill="#09465a" stroke="#09202d" stroke-miterlimit="10" stroke-width=".75"/>
    <path d="M18.66,69.11c-12.92.88-23.07-15.69-16.19-26.94,7.13-12.42,24.38-11.84,30.62,1.21,5.92,10.83-2.18,24.97-14.23,25.72h-.21Z" fill="#d68a2d" stroke="#d09032" stroke-miterlimit="10" stroke-width=".5"/>
    <path d="M89.5,36.15c-12.92.88-23.07-15.69-16.19-26.94,7.13-12.42,24.38-11.84,30.62,1.21,5.92,10.83-2.18,24.97-14.23,25.72h-.21Z" fill="#d68a2d" stroke="#d09032" stroke-miterlimit="10" stroke-width=".5"/>
    <path d="M160.75,69.11c-12.92.88-23.07-15.69-16.19-26.94,7.13-12.42,24.38-11.84,30.62,1.21,5.92,10.83-2.18,24.97-14.23,25.72h-.21Z" fill="#d68a2d" stroke="#d09032" stroke-miterlimit="10" stroke-width=".5"/>
  </g>
</svg>